<?xml version="1.0" encoding="UTF-8" standalone="no"?>
<!-- Created with Inkscape (http://www.inkscape.org/) -->

<svg
   xmlns:dc="http://purl.org/dc/elements/1.1/"
   xmlns:cc="http://creativecommons.org/ns#"
   xmlns:rdf="http://www.w3.org/1999/02/22-rdf-syntax-ns#"
   xmlns:svg="http://www.w3.org/2000/svg"
   xmlns="http://www.w3.org/2000/svg"
   xmlns:sodipodi="http://sodipodi.sourceforge.net/DTD/sodipodi-0.dtd"
   xmlns:inkscape="http://www.inkscape.org/namespaces/inkscape"
   version="1.1"
   id="svg2"
   xml:space="preserve"
   width="1500"
   height="1000"
   viewBox="0 0 1500 1000"
   sodipodi:docname="samrasto_When_Temporal_Data.svg"
   inkscape:version="0.92.0 r15299"
   inkscape:export-filename="C:\Users\samva\OneDrive - indiana.edu\Assignments\Information Visualization\HW2\samrasto_When_Temporal_Data.png"
   inkscape:export-xdpi="96"
   inkscape:export-ydpi="96"><metadata
     id="metadata8"><rdf:RDF><cc:Work
         rdf:about=""><dc:format>image/svg+xml</dc:format><dc:type
           rdf:resource="http://purl.org/dc/dcmitype/StillImage" /><dc:title></dc:title></cc:Work></rdf:RDF></metadata><defs
     id="defs6" /><sodipodi:namedview
     pagecolor="#ffffff"
     bordercolor="#666666"
     borderopacity="1"
     objecttolerance="10"
     gridtolerance="10"
     guidetolerance="10"
     inkscape:pageopacity="0"
     inkscape:pageshadow="2"
     inkscape:window-width="1920"
     inkscape:window-height="1001"
     id="namedview4"
     showgrid="false"
     showguides="false"
     inkscape:zoom="0.31466667"
     inkscape:cx="-348.1604"
     inkscape:cy="856.50262"
     inkscape:window-x="-9"
     inkscape:window-y="-9"
     inkscape:window-maximized="1"
     inkscape:current-layer="g12" /><g
     id="g10"
     inkscape:groupmode="layer"
     inkscape:label="samrasto_When_Temporal_Data"
     transform="matrix(1.3333333,0,0,-1.3333333,0,1000)"><g
       id="g12"
       transform="matrix(0.63990922,0,0,0.65606098,7.4101537,6.2307461)"><text
         transform="matrix(0.56661658,0,0,-1,188.63044,1037.5051)"
         style="font-variant:normal;font-weight:bold;font-size:65.68510437px;font-family:Arial;-inkscape-font-specification:Arial-BoldMT;writing-mode:lr-tb;fill:#000000;fill-opacity:1;fill-rule:nonzero;stroke:none"
         id="text16"><tspan
           x="0 47.424648 87.492561 113.04407 149.56499 171.43813 187.26823 234.88994 274.95786 311.47876 329.67355 365.99741 402.51834 420.7131 457.23401 475.4288 515.4967 537.36987 555.56464 599.31091 635.83185 676.0968 716.16473 734.3595 770.88043 796.43188 814.62671 850.88489 869.07965 912.82593 952.89386 992.96173 1011.1565 1029.3513 1065.8722 1102.3932 1124.2662 1142.4611 1182.5289 1222.7939 1259.3148 1277.5096 1303.0612 1339.582 1357.7769 1394.2977 1416.1709 1452.6918 1492.7598 1510.9545 1532.8276 1573.0927 1591.2874 1646.0031 1682.524 1719.0449 1759.1128 1781.183 1821.251 1857.7719 1875.9667 1894.1614 1934.2294 1992.6234 2029.1443 2047.3391 2069.2122 2105.7332 2142.2542 2178.7749 2215.4929 2237.366 2273.887 2310.408 2346.929 2383.4497"
           y="0"
           sodipodi:role="line"
           id="tspan14">Burst Analysis of Scholarly Publications related to Mesothelioma (1948-2010)</tspan></text>
<text
         transform="matrix(1,0,0,-0.85512247,787.27647,22.174506)"
         style="font-style:italic;font-variant:normal;font-size:22.55314445px;font-family:Arial;-inkscape-font-specification:Arial-ItalicMT;writing-mode:lr-tb;fill:#999999;fill-opacity:1;fill-rule:nonzero;stroke:none"
         id="text20"><tspan
           x="0 16.283371 32.566742 47.587135 53.834358 61.344555 72.621124 85.160675 96.437248 102.68447 107.69127 120.23082 126.47803 139.01759 151.55713 164.09668"
           y="0"
           sodipodi:role="line"
           id="tspan18">CNS (cns.iu.edu)</tspan></text>
<g
         id="g22"
         transform="translate(0,1125)"><path
           d="m 223.59,-899.941 v 767.187"
           style="fill:none;stroke:#ff626d;stroke-width:1.564165;stroke-linecap:butt;stroke-linejoin:miter;stroke-miterlimit:10;stroke-dasharray:10.427766, 10.427766;stroke-dashoffset:0;stroke-opacity:1"
           id="path24"
           inkscape:connector-curvature="0" /></g><text
         transform="matrix(1,0,0,-0.85512247,198.51195,205.77437)"
         style="font-variant:normal;font-weight:normal;font-size:22.55314445px;font-family:Arial;-inkscape-font-specification:ArialMT;writing-mode:lr-tb;fill:#000000;fill-opacity:1;fill-rule:nonzero;stroke:none"
         id="text28"><tspan
           x="0 12.539549 25.079098 37.618645"
           y="0"
           sodipodi:role="line"
           id="tspan26">1948</tspan></text>
<g
         id="g30"
         transform="translate(0,1125)"><path
           d="m 323.559,-899.941 v 767.187"
           style="fill:none;stroke:#ff626d;stroke-width:1.564165;stroke-linecap:butt;stroke-linejoin:miter;stroke-miterlimit:10;stroke-dasharray:10.427766, 10.427766;stroke-dashoffset:0;stroke-opacity:1"
           id="path32"
           inkscape:connector-curvature="0" /></g><text
         transform="matrix(1,0,0,-0.85512247,298.47764,205.77437)"
         style="font-variant:normal;font-weight:normal;font-size:22.55314445px;font-family:Arial;-inkscape-font-specification:ArialMT;writing-mode:lr-tb;fill:#000000;fill-opacity:1;fill-rule:nonzero;stroke:none"
         id="text36"><tspan
           x="0 12.539549 25.079098 37.618645"
           y="0"
           sodipodi:role="line"
           id="tspan34">1953</tspan></text>
<g
         id="g38"
         transform="translate(0,1125)"><path
           d="m 423.469,-899.941 v 767.187"
           style="fill:none;stroke:#ff626d;stroke-width:1.564165;stroke-linecap:butt;stroke-linejoin:miter;stroke-miterlimit:10;stroke-dasharray:10.427766, 10.427766;stroke-dashoffset:0;stroke-opacity:1"
           id="path40"
           inkscape:connector-curvature="0" /></g><text
         transform="matrix(1,0,0,-0.85512247,398.38807,205.77437)"
         style="font-variant:normal;font-weight:normal;font-size:22.55314445px;font-family:Arial;-inkscape-font-specification:ArialMT;writing-mode:lr-tb;fill:#000000;fill-opacity:1;fill-rule:nonzero;stroke:none"
         id="text44"><tspan
           x="0 12.539549 25.079098 37.618645"
           y="0"
           sodipodi:role="line"
           id="tspan42">1958</tspan></text>
<g
         id="g46"
         transform="translate(0,1125)"><path
           d="m 523.379,-899.941 v 767.187"
           style="fill:none;stroke:#ff626d;stroke-width:1.564165;stroke-linecap:butt;stroke-linejoin:miter;stroke-miterlimit:10;stroke-dasharray:10.427766, 10.427766;stroke-dashoffset:0;stroke-opacity:1"
           id="path48"
           inkscape:connector-curvature="0" /></g><text
         transform="matrix(1,0,0,-0.85512247,498.2985,205.77437)"
         style="font-variant:normal;font-weight:normal;font-size:22.55314445px;font-family:Arial;-inkscape-font-specification:ArialMT;writing-mode:lr-tb;fill:#000000;fill-opacity:1;fill-rule:nonzero;stroke:none"
         id="text52"><tspan
           x="0 12.539549 25.079098 37.618645"
           y="0"
           sodipodi:role="line"
           id="tspan50">1963</tspan></text>
<g
         id="g54"
         transform="translate(0,1125)"><path
           d="m 623.289,-899.941 v 767.187"
           style="fill:none;stroke:#ff626d;stroke-width:1.564165;stroke-linecap:butt;stroke-linejoin:miter;stroke-miterlimit:10;stroke-dasharray:10.427766, 10.427766;stroke-dashoffset:0;stroke-opacity:1"
           id="path56"
           inkscape:connector-curvature="0" /></g><text
         transform="matrix(1,0,0,-0.85512247,598.20894,205.77437)"
         style="font-variant:normal;font-weight:normal;font-size:22.55314445px;font-family:Arial;-inkscape-font-specification:ArialMT;writing-mode:lr-tb;fill:#000000;fill-opacity:1;fill-rule:nonzero;stroke:none"
         id="text60"><tspan
           x="0 12.539549 25.079098 37.618645"
           y="0"
           sodipodi:role="line"
           id="tspan58">1968</tspan></text>
<g
         id="g62"
         transform="translate(0,1125)"><path
           d="m 723.254,-899.941 v 767.187"
           style="fill:none;stroke:#ff626d;stroke-width:1.564165;stroke-linecap:butt;stroke-linejoin:miter;stroke-miterlimit:10;stroke-dasharray:10.427766, 10.427766;stroke-dashoffset:0;stroke-opacity:1"
           id="path64"
           inkscape:connector-curvature="0" /></g><text
         transform="matrix(1,0,0,-0.85512247,698.17576,205.77437)"
         style="font-variant:normal;font-weight:normal;font-size:22.55314445px;font-family:Arial;-inkscape-font-specification:ArialMT;writing-mode:lr-tb;fill:#000000;fill-opacity:1;fill-rule:nonzero;stroke:none"
         id="text68"><tspan
           x="0 12.539549 25.079098 37.618645"
           y="0"
           sodipodi:role="line"
           id="tspan66">1973</tspan></text>
<g
         id="g70"
         transform="translate(0,1125)"><path
           d="m 823.164,-899.941 v 767.187"
           style="fill:none;stroke:#ff626d;stroke-width:1.564165;stroke-linecap:butt;stroke-linejoin:miter;stroke-miterlimit:10;stroke-dasharray:10.427766, 10.427766;stroke-dashoffset:0;stroke-opacity:1"
           id="path72"
           inkscape:connector-curvature="0" /></g><text
         transform="matrix(1,0,0,-0.85512247,798.08619,205.77437)"
         style="font-variant:normal;font-weight:normal;font-size:22.55314445px;font-family:Arial;-inkscape-font-specification:ArialMT;writing-mode:lr-tb;fill:#000000;fill-opacity:1;fill-rule:nonzero;stroke:none"
         id="text76"><tspan
           x="0 12.539549 25.079098 37.618645"
           y="0"
           sodipodi:role="line"
           id="tspan74">1978</tspan></text>
<g
         id="g78"
         transform="translate(0,1125)"><path
           d="m 923.074,-899.941 v 767.187"
           style="fill:none;stroke:#ff626d;stroke-width:1.564165;stroke-linecap:butt;stroke-linejoin:miter;stroke-miterlimit:10;stroke-dasharray:10.427766, 10.427766;stroke-dashoffset:0;stroke-opacity:1"
           id="path80"
           inkscape:connector-curvature="0" /></g><text
         transform="matrix(1,0,0,-0.85512247,897.99662,205.77437)"
         style="font-variant:normal;font-weight:normal;font-size:22.55314445px;font-family:Arial;-inkscape-font-specification:ArialMT;writing-mode:lr-tb;fill:#000000;fill-opacity:1;fill-rule:nonzero;stroke:none"
         id="text84"><tspan
           x="0 12.539549 25.079098 37.618645"
           y="0"
           sodipodi:role="line"
           id="tspan82">1983</tspan></text>
<g
         id="g86"
         transform="translate(0,1125)"><path
           d="m 1022.984,-899.941 v 767.187"
           style="fill:none;stroke:#ff626d;stroke-width:1.564165;stroke-linecap:butt;stroke-linejoin:miter;stroke-miterlimit:10;stroke-dasharray:10.427766, 10.427766;stroke-dashoffset:0;stroke-opacity:1"
           id="path88"
           inkscape:connector-curvature="0" /></g><text
         transform="matrix(1,0,0,-0.85512247,997.90931,205.77437)"
         style="font-variant:normal;font-weight:normal;font-size:22.55314445px;font-family:Arial;-inkscape-font-specification:ArialMT;writing-mode:lr-tb;fill:#000000;fill-opacity:1;fill-rule:nonzero;stroke:none"
         id="text92"><tspan
           x="0 12.539549 25.079098 37.618645"
           y="0"
           sodipodi:role="line"
           id="tspan90">1988</tspan></text>
<g
         id="g94"
         transform="translate(0,1125)"><path
           d="m 1122.953,-899.941 v 767.187"
           style="fill:none;stroke:#ff626d;stroke-width:1.564165;stroke-linecap:butt;stroke-linejoin:miter;stroke-miterlimit:10;stroke-dasharray:10.427766, 10.427766;stroke-dashoffset:0;stroke-opacity:1"
           id="path96"
           inkscape:connector-curvature="0" /></g><text
         transform="matrix(1,0,0,-0.85512247,1097.8739,205.77437)"
         style="font-variant:normal;font-weight:normal;font-size:22.55314445px;font-family:Arial;-inkscape-font-specification:ArialMT;writing-mode:lr-tb;fill:#000000;fill-opacity:1;fill-rule:nonzero;stroke:none"
         id="text100"><tspan
           x="0 12.539549 25.079098 37.618645"
           y="0"
           sodipodi:role="line"
           id="tspan98">1993</tspan></text>
<g
         id="g102"
         transform="translate(0,1125)"><path
           d="m 1222.863,-899.941 v 767.187"
           style="fill:none;stroke:#ff626d;stroke-width:1.564165;stroke-linecap:butt;stroke-linejoin:miter;stroke-miterlimit:10;stroke-dasharray:10.427766, 10.427766;stroke-dashoffset:0;stroke-opacity:1"
           id="path104"
           inkscape:connector-curvature="0" /></g><text
         transform="matrix(1,0,0,-0.85512247,1197.7843,205.77437)"
         style="font-variant:normal;font-weight:normal;font-size:22.55314445px;font-family:Arial;-inkscape-font-specification:ArialMT;writing-mode:lr-tb;fill:#000000;fill-opacity:1;fill-rule:nonzero;stroke:none"
         id="text108"><tspan
           x="0 12.539549 25.079098 37.618645"
           y="0"
           sodipodi:role="line"
           id="tspan106">1998</tspan></text>
<g
         id="g110"
         transform="translate(0,1125)"><path
           d="m 1322.773,-899.941 v 767.187"
           style="fill:none;stroke:#ff626d;stroke-width:1.564165;stroke-linecap:butt;stroke-linejoin:miter;stroke-miterlimit:10;stroke-dasharray:10.427766, 10.427766;stroke-dashoffset:0;stroke-opacity:1"
           id="path112"
           inkscape:connector-curvature="0" /></g><text
         transform="matrix(1,0,0,-0.85512247,1297.697,205.77437)"
         style="font-variant:normal;font-weight:normal;font-size:22.55314445px;font-family:Arial;-inkscape-font-specification:ArialMT;writing-mode:lr-tb;fill:#000000;fill-opacity:1;fill-rule:nonzero;stroke:none"
         id="text116"><tspan
           x="0 12.539549 25.079098 37.618645"
           y="0"
           sodipodi:role="line"
           id="tspan114">2003</tspan></text>
<g
         id="g118"
         transform="translate(0,1125)"><path
           d="m 1422.684,-899.941 v 767.187"
           style="fill:none;stroke:#ff626d;stroke-width:1.564165;stroke-linecap:butt;stroke-linejoin:miter;stroke-miterlimit:10;stroke-dasharray:10.427766, 10.427766;stroke-dashoffset:0;stroke-opacity:1"
           id="path120"
           inkscape:connector-curvature="0" /></g><text
         transform="matrix(1,0,0,-0.85512247,1397.6074,205.77437)"
         style="font-variant:normal;font-weight:normal;font-size:22.55314445px;font-family:Arial;-inkscape-font-specification:ArialMT;writing-mode:lr-tb;fill:#000000;fill-opacity:1;fill-rule:nonzero;stroke:none"
         id="text124"><tspan
           x="0 12.539549 25.079098 37.618645"
           y="0"
           sodipodi:role="line"
           id="tspan122">2008</tspan></text>
<g
         id="g126"
         transform="translate(0,1125)"><path
           d="m 1522.652,-899.941 v 767.187"
           style="fill:none;stroke:#ff626d;stroke-width:1.564165;stroke-linecap:butt;stroke-linejoin:miter;stroke-miterlimit:10;stroke-dasharray:10.427766, 10.427766;stroke-dashoffset:0;stroke-opacity:1"
           id="path128"
           inkscape:connector-curvature="0" /></g><text
         transform="matrix(1,0,0,-0.85512247,1497.572,205.77437)"
         style="font-variant:normal;font-weight:normal;font-size:22.55314445px;font-family:Arial;-inkscape-font-specification:ArialMT;writing-mode:lr-tb;fill:#000000;fill-opacity:1;fill-rule:nonzero;stroke:none"
         id="text132"><tspan
           x="0 12.539549 25.079098 37.618645"
           y="0"
           sodipodi:role="line"
           id="tspan130">2013</tspan></text>
<text
         transform="scale(1.0073242,-0.99272904)"
         style="font-variant:normal;font-weight:normal;font-size:20.14644814px;font-family:Arial;-inkscape-font-specification:ArialMT;writing-mode:lr-tb;fill:#000000;fill-opacity:1;fill-rule:nonzero;stroke:none;stroke-width:1.43716586"
         id="text136"
         x="152.32431"
         y="-253.95605"><tspan
           x="152.32431 163.52571 167.99823 179.19966 190.40109 197.10985"
           y="-253.95605"
           sodipodi:role="line"
           id="tspan134"
           style="stroke-width:1.43716586">pleura</tspan></text>
<path
         d="M 223.59,275.34 H 783.168 V 237.047 H 223.59 Z"
         style="fill:#ffe680;fill-opacity:1;fill-rule:nonzero;stroke:none"
         id="path138"
         inkscape:connector-curvature="0" /><text
         transform="scale(1.0194013,-0.98096795)"
         style="font-variant:normal;font-weight:normal;font-size:20.38798904px;font-family:Arial;-inkscape-font-specification:ArialMT;writing-mode:lr-tb;fill:#000000;fill-opacity:1;fill-rule:nonzero;stroke:none;stroke-width:1.45439637"
         id="text142"
         x="138.76425"
         y="-299.75119"><tspan
           x="138.76425 150.09998 161.4357 168.2249 172.75102 182.94502 194.28075 201.06996 212.40569 216.93179 228.26753"
           y="-299.75119"
           sodipodi:role="line"
           id="tspan140"
           style="stroke-width:1.45439637">pericardium</tspan></text>
<path
         d="M 263.59,308.934 H 863.106 V 287.325 H 263.59 Z"
         style="fill:#ffe680;fill-opacity:1;fill-rule:nonzero;stroke:none"
         id="path144"
         inkscape:connector-curvature="0" /><text
         transform="scale(1.0018577,-0.9981457)"
         style="font-variant:normal;font-weight:normal;font-size:20.03711891px;line-height:25.04639816px;font-family:Arial;-inkscape-font-specification:ArialMT;writing-mode:lr-tb;fill:#000000;fill-opacity:1;fill-rule:nonzero;stroke:none;stroke-width:1.42936683"
         id="text148"
         x="228.17339"
         y="-331.45615"><tspan
           x="228.17339 239.31407 245.98639 250.4346 267.12552 278.2662 284.9386"
           y="-331.45615"
           sodipodi:role="line"
           id="tspan146"
           style="line-height:25.04639816px;stroke-width:1.42936683">primari</tspan></text>
<path
         d="M 303.531,348.93 H 583.347 V 320.918 H 303.531 Z"
         style="fill:#ffe680;fill-opacity:1;fill-rule:nonzero;stroke:none"
         id="path150"
         inkscape:connector-curvature="0" /><text
         transform="scale(1.0080556,-0.99200874)"
         style="font-variant:normal;font-weight:normal;font-size:18.6939106px;font-family:Arial;-inkscape-font-specification:ArialMT;writing-mode:lr-tb;fill:#000000;fill-opacity:1;fill-rule:nonzero;stroke:none;stroke-width:1.33354771"
         id="text154"
         x="322.01663"
         y="-366.72784"><tspan
           x="322.01663 332.41037 336.56049 341.73868 346.91687 357.3107"
           y="-366.72784"
           sodipodi:role="line"
           id="tspan152"
           style="stroke-width:1.33354771">diffus</tspan></text>
<path
         d="M 383.469,375.57 H 983.043 V 360.918 H 383.469 Z"
         style="fill:#ffe680;fill-opacity:1;fill-rule:nonzero;stroke:none"
         id="path156"
         inkscape:connector-curvature="0" /><text
         transform="scale(0.99157713,-1.0084944)"
         style="font-variant:normal;font-weight:normal;font-size:18.69685173px;font-family:Arial;-inkscape-font-specification:ArialMT;writing-mode:lr-tb;fill:#000000;fill-opacity:1;fill-rule:nonzero;stroke:none;stroke-width:1.33375764"
         id="text160"
         x="374.54886"
         y="-386.45169"><tspan
           x="374.54886 384.94431 394.29272 404.6882 415.08362 424.43207 429.61108 440.00653 449.35498"
           y="-386.45169"
           sodipodi:role="line"
           id="tspan158"
           style="stroke-width:1.33375764">asbestosi</tspan></text>
<path
         d="M 463.41,400.762 H 903.105 V 387.559 H 463.41 Z"
         style="fill:#ffe680;fill-opacity:1;fill-rule:nonzero;stroke:none"
         id="path162"
         inkscape:connector-curvature="0" /><text
         transform="scale(1.0055122,-0.99451798)"
         style="font-variant:normal;font-weight:normal;font-size:18.64674377px;font-family:Arial;-inkscape-font-specification:ArialMT;writing-mode:lr-tb;fill:#000000;fill-opacity:1;fill-rule:nonzero;stroke:none;stroke-width:1.33018303"
         id="text166"
         x="629.66235"
         y="-419.65033"><tspan
           x="629.66235 634.82745 638.9671 649.33466 655.54401 665.91162 676.27924"
           y="-419.65033"
           sodipodi:role="line"
           id="tspan164"
           style="stroke-width:1.33018303">fibrous</tspan></text>
<path
         d="m 703.227,430.848 h 319.758 V 412.75 H 703.227 Z"
         style="fill:#ffe680;fill-opacity:1;fill-rule:nonzero;stroke:none"
         id="path168"
         inkscape:connector-curvature="0" /><text
         transform="scale(0.88640664,-1.1281504)"
         style="font-variant:normal;font-weight:normal;font-size:22.28505707px;font-family:Arial;-inkscape-font-specification:ArialMT;writing-mode:lr-tb;fill:#000000;fill-opacity:1;fill-rule:nonzero;stroke:none;stroke-width:1.58972561"
         id="text172"
         x="1160.7727"
         y="-401.60327"><tspan
           x="1160.7727 1173.1632 1185.5537 1204.1169 1216.5074"
           y="-401.60327"
           sodipodi:role="line"
           id="tspan170"
           style="stroke-width:1.58972561">human</tspan></text>
<path
         d="m 1102.926,481.156 h 159.879 v -38.32 h -159.879 z"
         style="fill:#ffe680;fill-opacity:1;fill-rule:nonzero;stroke:none"
         id="path174"
         inkscape:connector-curvature="0" /><text
         transform="scale(0.87211422,-1.1466388)"
         style="font-variant:normal;font-weight:normal;font-size:21.53549004px;font-family:Arial;-inkscape-font-specification:ArialMT;writing-mode:lr-tb;fill:#000000;fill-opacity:1;fill-rule:nonzero;stroke:none;stroke-width:1.53625476"
         id="text178"
         x="1246.7783"
         y="-442.97821"><tspan
           x="1246.7783 1258.752 1270.7258 1282.6993"
           y="-442.97821"
           sodipodi:role="line"
           id="tspan176"
           style="stroke-width:1.53625476">gene</tspan></text>
<path
         d="m 1142.922,526.453 h 199.824 v -33.309 h -199.824 z"
         style="fill:#ffe680;fill-opacity:1;fill-rule:nonzero;stroke:none"
         id="path180"
         inkscape:connector-curvature="0" /><text
         transform="scale(0.98333664,-1.0169457)"
         style="font-variant:normal;font-weight:normal;font-size:19.66669655px;font-family:Arial;-inkscape-font-specification:ArialMT;writing-mode:lr-tb;fill:#000000;fill-opacity:1;fill-rule:nonzero;stroke:none;stroke-width:1.40294242"
         id="text184"
         x="1191.8595"
         y="-544.71368"><tspan
           x="1191.8595 1201.6927 1212.6274 1223.5621 1239.9446 1250.8793 1256.3269 1267.2616 1278.1963 1284.7452 1295.6799 1306.6145"
           y="-544.71368"
           sodipodi:role="line"
           id="tspan182"
           style="stroke-width:1.40294242">chemotherapi</tspan></text>
<path
         d="m 1302.805,577.613 h 159.879 v -39.172 h -159.879 z"
         style="fill:#ffe680;fill-opacity:1;fill-rule:nonzero;stroke:none"
         id="path186"
         inkscape:connector-curvature="0" /><text
         transform="scale(0.94322355,-1.060194)"
         style="font-variant:normal;font-weight:normal;font-size:19.20276642px;font-family:Arial;-inkscape-font-specification:ArialMT;writing-mode:lr-tb;fill:#000000;fill-opacity:1;fill-rule:nonzero;stroke:none;stroke-width:1.36984766"
         id="text190"
         x="1286.3641"
         y="-584.00336"><tspan
           x="1286.3641 1297.0409 1307.7177 1323.7135 1334.3904 1339.7096 1346.104 1356.7808"
           y="-584.00336"
           sodipodi:role="line"
           id="tspan188"
           style="stroke-width:1.36984766">pemetrex</tspan></text>
<path
         d="m 1302.805,656.004 h 159.879 v -66.402 h -159.879 z"
         style="fill:#ffe680;fill-opacity:1;fill-rule:nonzero;stroke:none"
         id="path192"
         inkscape:connector-curvature="0" /><text
         transform="scale(1.0017083,-0.99829457)"
         style="font-variant:normal;font-weight:normal;font-size:19.78066826px;font-family:Arial;-inkscape-font-specification:ArialMT;writing-mode:lr-tb;fill:#000000;fill-opacity:1;fill-rule:nonzero;stroke:none;stroke-width:1.41107273"
         id="text196"
         x="1225.9838"
         y="-681.78796"><tspan
           x="1225.9838 1235.8741 1246.8723 1253.4592 1264.4573 1275.4552 1282.0422"
           y="-681.78796"
           sodipodi:role="line"
           id="tspan194"
           style="stroke-width:1.41107273">surgeri</tspan></text>
<path
         d="m 1302.805,714.063 h 159.879 v -46.07 h -159.879 z"
         style="fill:#ffe680;fill-opacity:1;fill-rule:nonzero;stroke:none"
         id="path198"
         inkscape:connector-curvature="0" /><text
         transform="scale(1.0135596,-0.98662181)"
         style="font-variant:normal;font-weight:normal;font-size:20.2711544px;font-family:Arial;-inkscape-font-specification:ArialMT;writing-mode:lr-tb;fill:#000000;fill-opacity:1;fill-rule:nonzero;stroke:none;stroke-width:1.44606197"
         id="text202"
         x="1211.4974"
         y="-762.9989"><tspan
           x="1211.4974 1222.7683 1232.9037 1238.5189 1245.2692 1256.5399 1267.8107 1272.3109 1283.5817 1294.8524"
           y="-762.9989"
           sodipodi:role="line"
           id="tspan200"
           style="stroke-width:1.44606197">extrapleur</tspan></text>
<path
         d="M 1342.746,787.699 H 1462.68 V 726.051 H 1342.746 Z"
         style="fill:#ffe680;fill-opacity:1;fill-rule:nonzero;stroke:none"
         id="path204"
         inkscape:connector-curvature="0" /><text
         transform="scale(0.95623211,-1.0457712)"
         style="font-variant:normal;font-weight:normal;font-size:19.12460709px;font-family:Arial;-inkscape-font-specification:ArialMT;writing-mode:lr-tb;fill:#000000;fill-opacity:1;fill-rule:nonzero;stroke:none;stroke-width:1.364272"
         id="text208"
         x="1246.4475"
         y="-796.32166"><tspan
           x="1246.4475 1257.0808 1267.7141 1278.3473 1288.9806 1304.9114 1315.5447 1326.178 1336.8113 1346.3737 1351.671 1362.3043 1378.2351"
           y="-796.32166"
           sodipodi:role="line"
           id="tspan206"
           style="stroke-width:1.364272">pneumonectomi</tspan></text>
<path
         d="M 1342.746,869.449 H 1462.68 V 799.687 H 1342.746 Z"
         style="fill:#ffe680;fill-opacity:1;fill-rule:nonzero;stroke:none"
         id="path210"
         inkscape:connector-curvature="0" /><text
         transform="scale(0.8220751,-1.2164339)"
         style="font-variant:normal;font-weight:normal;font-size:20.66770554px;font-family:Arial;-inkscape-font-specification:ArialMT;writing-mode:lr-tb;fill:#000000;fill-opacity:1;fill-rule:nonzero;stroke:none;stroke-width:1.47435033"
         id="text214"
         x="1565.2896"
         y="-756.72046"><tspan
           x="1565.2896 1582.5059 1593.9971 1604.3308 1615.8221 1621.5471 1633.0385 1644.5297 1649.1179 1653.7061"
           y="-756.72046"
           sodipodi:role="line"
           id="tspan212"
           style="stroke-width:1.47435033">mesothelin</tspan></text>
<path
         d="m 1382.742,968.27 h 79.941 v -86.836 h -79.941 z"
         style="fill:#ffe680;fill-opacity:1;fill-rule:nonzero;stroke:none"
         id="path216"
         inkscape:connector-curvature="0" /><text
         transform="scale(1.0813987,-0.92472831)"
         style="font-variant:normal;font-weight:bold;font-size:29.19774437px;font-family:Arial;-inkscape-font-specification:Arial-BoldMT;writing-mode:lr-tb;fill:#000000;fill-opacity:1;fill-rule:nonzero;stroke:none;stroke-width:0.92472827"
         id="text220"
         x="88.859177"
         y="-168.50127"><tspan
           x="88.859177 106.66985 122.90385 140.71451 156.94846 174.75906"
           y="-168.50127"
           sodipodi:role="line"
           id="tspan218"
           style="stroke-width:0.92472827">Legend</tspan></text>
<text
         transform="scale(1.0813987,-0.92472832)"
         style="font-variant:normal;font-weight:normal;font-size:20.85553169px;font-family:Arial;-inkscape-font-specification:ArialMT;writing-mode:lr-tb;fill:#000000;fill-opacity:1;fill-rule:nonzero;stroke:none;stroke-width:0.92472833"
         id="text230"
         x="88.859177"
         y="-139.30351"><tspan
           x="88.859177 102.749 109.69394 121.28964 132.88535 138.66232 149.09009 153.72 164.14777 175.74347 181.52045 187.29742 206.9642 218.55988 223.18979 234.78546 246.38116"
           y="-139.30351"
           sodipodi:role="line"
           id="tspan222"
           style="stroke-width:0.92472833">Area size: Weight</tspan><tspan
           x="88.859177 106.23189 110.86182 122.45756 127.08749 144.46014 156.05585 173.4285 179.20547 191.36426 197.14124 208.73694"
           y="-118.44799"
           sodipodi:role="line"
           id="tspan224"
           style="stroke-width:0.92472833">Minimum = 12</tspan><tspan
           x="88.859177 106.23189 117.8276 128.2554 132.88535 150.258 161.85367 179.22632 185.00333 197.16211 202.93909 214.53476"
           y="-97.592461"
           sodipodi:role="line"
           id="tspan226"
           style="stroke-width:0.92472833">Maximum = 44</tspan><tspan
           x="88.859177 101.58109 113.1768 123.60459 129.38162 135.1586 139.78851 151.38419 162.97986 174.57553 179.20547 184.98248 190.75943 210.42621 222.02188 228.96677"
           y="-76.736931"
           sodipodi:role="line"
           id="tspan228"
           style="stroke-width:0.92472833">Text label: Word</tspan></text>
<text
         transform="scale(1.0813987,-0.92472831)"
         style="font-variant:normal;font-weight:bold;font-size:29.19774437px;font-family:Arial;-inkscape-font-specification:Arial-BoldMT;writing-mode:lr-tb;fill:#000000;fill-opacity:1;fill-rule:nonzero;stroke:none;stroke-width:0.92472827"
         id="text234"
         x="771.08099"
         y="-161.62599"><tspan
           x="771.08099 792.16174 809.97241 832.65906 840.74683 858.55743 876.36804 884.45581 905.53662 921.77057 938.00458 955.81598 963.90393 981.71515 999.52612 1007.6141 1023.8484 1031.9362 1056.2578 1072.4917"
           y="-161.62599"
           sodipodi:role="line"
           id="tspan232"
           style="stroke-width:0.92472827">How To Read This Map</tspan></text>
<text
         transform="scale(1.0813987,-0.92472832)"
         style="font-variant:normal;font-weight:normal;font-size:20.85553169px;font-family:Arial;-inkscape-font-specification:ArialMT;writing-mode:lr-tb;fill:#000000;fill-opacity:1;fill-rule:nonzero;stroke:none;stroke-width:0.92472833"
         id="text238"
         x="771.08099"
         y="-130.3427"><tspan
           x="771.08099 783.80292 795.39856 800.0285 810.45624"
           y="-130.3427"
           sodipodi:role="line"
           id="tspan236"
           style="stroke-width:0.92472833">This </tspan></text>
<text
         transform="scale(1.0813987,-0.92472832)"
         style="font-style:italic;font-variant:normal;font-size:20.85553169px;font-family:Arial;-inkscape-font-specification:Arial-ItalicMT;writing-mode:lr-tb;fill:#000000;fill-opacity:1;fill-rule:nonzero;stroke:none;stroke-width:0.92472833"
         id="text242"
         x="816.23322"
         y="-130.3427"><tspan
           x="816.23322 822.01025 833.6059 850.97858 862.57422 874.16992 881.11481 892.71051 897.34039 903.11737 914.71307 926.30896 933.25385 939.03094 950.62695 957.57214 969.16797 980.76392"
           y="-130.3427"
           sodipodi:role="line"
           id="tspan240"
           style="stroke-width:0.92472833">temporal bar graph</tspan></text>
<text
         transform="scale(1.0813987,-0.92472832)"
         style="font-variant:normal;font-weight:normal;font-size:20.85553169px;font-family:Arial;-inkscape-font-specification:ArialMT;writing-mode:lr-tb;fill:#000000;fill-opacity:1;fill-rule:nonzero;stroke:none;stroke-width:0.92472833"
         id="text252"
         x="998.13702"
         y="-130.3427"><tspan
           x="998.13702 1008.5652 1013.1953 1023.623 1035.2188 1046.8145 1051.4443 1056.0743 1066.5021 1078.0978 1083.8748 1088.5046 1100.1003 1111.696 1117.473 1124.4178 1136.0135 1147.6093 1154.5541 1166.1498 1176.5775 1188.1732 1199.7689 1205.5459 1215.9736 1221.7506 1233.3463 1244.942 1255.3698 1266.9655 1272.7424 1279.6873 1291.283 1301.7107 1313.3064 1320.2513 1331.7844 1337.5614 1349.1571 1359.5848 1365.3618 1376.9575 1382.7345 1394.3302 1405.9259 1412.8707 1417.5006 1427.9285 1439.524 1451.1198 1456.8967 1468.4924"
           y="-130.3427"
           sodipodi:role="line"
           id="tspan244"
           style="stroke-width:0.92472833">visualization represents each record as a horizontal</tspan><tspan
           x="771.08099 782.6767 794.27234 801.21722 806.9942 822.05194 826.68182 832.4588 844.0545 849.83148 861.42719 867.20416 877.6319 889.2276 900.82324 911.25104 915.88104 921.65796 926.28796 936.71588 942.4931 952.92102 958.69824 970.29413 977.23932 983.01648 988.79364 1000.3896 1011.9858 1023.5815 1029.3585 1040.954 1052.5497 1064.1454 1069.9224 1081.5181 1093.1138 1098.8907 1110.4863 1116.2633 1127.859 1139.4547 1151.0504 1156.8274 1168.423 1174.2001 1179.9771 1191.5726 1202.0005 1207.7775 1213.5544 1218.1843 1229.78 1241.3757 1252.9713 1257.6013 1263.3783 1274.974 1286.5696 1292.3466 1296.9766 1302.7535 1313.1813 1318.9583 1323.5883 1335.1838 1340.9608 1346.7378 1352.5148 1362.9426 1367.5725 1379.1682 1390.7639 1396.5409 1402.3179 1415.0397 1426.6354 1438.2311 1444.0081 1455.6038 1462.5486 1474.1443"
           y="-107.4016"
           sodipodi:role="line"
           id="tspan246"
           style="stroke-width:0.92472833">bar with a specific start and end date and a text label on its left side. The area</tspan><tspan
           x="771.08099 782.6767 788.45367 794.23065 805.82629 817.422 827.84979 839.44543 845.22241 856.81812 868.41376 875.35864 881.13562 892.73132 904.32697 914.75476 926.35052 937.94647 949.5423 959.97058 965.7478 977.34332 983.12091 994.7168 1006.3127 1023.6855 1035.2814 1042.2262 1046.8561 1057.2839 1068.8796 1073.5095 1079.2865 1090.8822 1096.6592 1102.4362 1109.381 1114.011 1125.6066 1137.2023 1142.9792 1154.575 1160.3519 1170.7797 1182.3754 1187.0054 1198.601 1210.1967 1215.9736 1221.7506 1233.3463 1239.1233 1250.719 1256.496 1262.2729 1268.0499 1273.8269 1285.4226 1291.1996 1302.7952 1307.4252 1313.2021 1324.7979 1342.1705 1353.7661 1365.3618 1376.9575 1382.7345 1388.5115 1400.1072 1405.8842 1411.6611 1417.4381 1429.0338 1440.6294 1452.2251 1456.8551 1468.4507 1480.0464"
           y="-84.460518"
           sodipodi:role="line"
           id="tspan248"
           style="stroke-width:0.92472833">of each bar encodes a numerical attribute value, e.g., total amount of funding.</tspan><tspan
           x="771.08099 784.97076 796.56647 803.51135 813.93909 819.71613 837.08875 848.68445 859.11218 864.88916 876.48486 888.08051 893.85754 904.28528 915.88104 920.51086 932.10669 939.05188 950.64795 962.24377 968.02094 973.7981 985.39404 991.1712 1002.7672 1009.7123 1021.308 1031.7361 1043.3315 1054.9272 1060.7042 1066.4812 1076.9089 1088.5046 1094.2816 1105.8773 1117.473 1129.0686 1136.0135 1140.6434 1151.0713 1162.6669 1167.2969 1173.0739 1184.6696 1190.4465 1196.2235 1203.1683 1207.7982 1219.3939 1230.9896 1236.7666 1248.3623 1254.1393 1264.567 1276.1627 1280.7926 1292.3883 1303.984 1314.4117 1320.1887 1331.7844 1337.5614 1343.3384 1350.2833 1361.8789 1372.3068 1383.9023 1390.8473 1402.443 1412.8707"
           y="-61.51944"
           sodipodi:role="line"
           id="tspan250"
           style="stroke-width:0.92472833">Bars may be colored to present categorical attribute values of records.</tspan></text>
<text
         transform="scale(1.0813987,-0.92472831)"
         style="font-variant:normal;font-weight:bold;font-size:29.19774437px;font-family:Arial;-inkscape-font-specification:Arial-BoldMT;writing-mode:lr-tb;fill:#000000;fill-opacity:1;fill-rule:nonzero;stroke:none;stroke-width:0.92472827"
         id="text256"
         x="308.44519"
         y="-168.86766"><tspan
           x="308.44519 329.52594 340.88388 357.11783"
           y="-168.86766"
           sodipodi:role="line"
           id="tspan254"
           style="stroke-width:0.92472827">Area</tspan></text>
<path
         d="m 426.29328,176.461 h 112.766 v -34.715 h -112.766 z"
         style="fill:#ffe680;fill-opacity:1;fill-rule:nonzero;stroke:none"
         id="path258"
         inkscape:connector-curvature="0" /><text
         transform="scale(1.0813987,-0.92472832)"
         style="font-variant:normal;font-weight:normal;font-size:20.85553169px;font-family:Arial;-inkscape-font-specification:ArialMT;writing-mode:lr-tb;fill:#000000;fill-opacity:1;fill-rule:nonzero;stroke:none;stroke-width:0.92472833"
         id="text262"
         x="508.90894"
         y="-166.50577"><tspan
           x="508.90894"
           y="-166.50577"
           id="tspan260"
           style="stroke-width:0.92472833">8</tspan></text>
<path
         d="m 426.29328,130.176 h 112.766 v -11.574 h -112.766 z"
         style="fill:#ffe680;fill-opacity:1;fill-rule:nonzero;stroke:none"
         id="path264"
         inkscape:connector-curvature="0" /><text
         transform="scale(1.0813987,-0.92472832)"
         style="font-variant:normal;font-weight:normal;font-size:20.85553169px;font-family:Arial;-inkscape-font-specification:ArialMT;writing-mode:lr-tb;fill:#000000;fill-opacity:1;fill-rule:nonzero;stroke:none;stroke-width:0.92472833"
         id="text268"
         x="508.90894"
         y="-128.96582"><tspan
           x="508.90894"
           y="-128.96582"
           id="tspan266"
           style="stroke-width:0.92472833">3</tspan></text>
<path
         d="m 426.29328,107.031 h 112.766 v -3.855 h -112.766 z"
         style="fill:#ffe680;fill-opacity:1;fill-rule:nonzero;stroke:none"
         id="path270"
         inkscape:connector-curvature="0" /><text
         transform="scale(1.0813987,-0.92472832)"
         style="font-variant:normal;font-weight:normal;font-size:20.85553169px;font-family:Arial;-inkscape-font-specification:ArialMT;writing-mode:lr-tb;fill:#000000;fill-opacity:1;fill-rule:nonzero;stroke:none;stroke-width:0.92472833"
         id="text274"
         x="508.90894"
         y="-108.35074"><tspan
           x="508.90894"
           y="-108.35074"
           id="tspan272"
           style="stroke-width:0.92472833">1</tspan></text>
<g
         id="g276"
         transform="translate(-138.30085,1125)"><path
           d="M 564.594,-1041.109 H 677.359"
           style="fill:none;stroke:#ffe680;stroke-width:1.564165;stroke-linecap:butt;stroke-linejoin:miter;stroke-miterlimit:10;stroke-dasharray:4.171106, 4.171106;stroke-dashoffset:0;stroke-opacity:1"
           id="path278"
           inkscape:connector-curvature="0" /></g><text
         transform="scale(1.0813987,-0.92472832)"
         style="font-variant:normal;font-weight:normal;font-size:20.85553169px;font-family:Arial;-inkscape-font-specification:ArialMT;writing-mode:lr-tb;fill:#000000;fill-opacity:1;fill-rule:nonzero;stroke:none;stroke-width:0.92472833"
         id="text282"
         x="508.90894"
         y="-83.083641"><tspan
           x="508.90894"
           y="-83.083641"
           id="tspan280"
           style="stroke-width:0.92472833">0</tspan></text>
<g
         id="g284"
         transform="translate(-138.30085,1125)"><path
           d="m 564.594,-1052.684 v -9.64"
           style="fill:none;stroke:#000000;stroke-width:2.08555293;stroke-linecap:butt;stroke-linejoin:miter;stroke-miterlimit:10;stroke-dasharray:none;stroke-opacity:1"
           id="path286"
           inkscape:connector-curvature="0" /></g><g
         id="g288"
         transform="translate(-138.30085,1125)"><path
           d="M 564.594,-1052.684 H 677.359"
           style="fill:none;stroke:#000000;stroke-width:2.08555293;stroke-linecap:butt;stroke-linejoin:miter;stroke-miterlimit:10;stroke-dasharray:none;stroke-opacity:1"
           id="path290"
           inkscape:connector-curvature="0" /></g><g
         id="g292"
         transform="translate(-138.30085,1125)"><path
           d="m 677.359,-1052.684 v -9.64"
           style="fill:none;stroke:#000000;stroke-width:2.08555293;stroke-linecap:butt;stroke-linejoin:miter;stroke-miterlimit:10;stroke-dasharray:none;stroke-opacity:1"
           id="path294"
           inkscape:connector-curvature="0" /></g><text
         transform="scale(1.0813987,-0.92472832)"
         style="font-variant:normal;font-weight:normal;font-size:20.85553169px;font-family:Arial;-inkscape-font-specification:ArialMT;writing-mode:lr-tb;fill:#000000;fill-opacity:1;fill-rule:nonzero;stroke:none;stroke-width:0.92472833"
         id="text298"
         x="394.20511"
         y="-46.920567"><tspan
           x="394.20511 405.80063 411.57755 423.17307 434.76855 440.54544 454.43503 466.03058 477.6261 484.57089 491.51569 501.94327"
           y="-46.920567"
           sodipodi:role="line"
           id="tspan296"
           style="stroke-width:0.92472833">5.65 Year(s)</tspan></text>
<path
         d="M 84.348,1010.8134 H 1646.649 V 192.98937 H 84.348 Z"
         style="fill:#9368ff;fill-opacity:0.05098039;fill-rule:nonzero;stroke:none"
         id="path300"
         inkscape:connector-curvature="0" /><g
         id="g302"
         transform="matrix(1,0,0,-1,0,1125)"><path
           d="M 84.348,116.473 H 1646.649 V 934.297 H 84.348 Z"
           style="fill:none;stroke:#ffe680;stroke-width:0.75;stroke-linecap:butt;stroke-linejoin:miter;stroke-miterlimit:4;stroke-dasharray:none;stroke-opacity:0.14427903"
           id="path304"
           inkscape:connector-curvature="0" /></g></g></g></svg>