<?xml version="1.0" encoding="UTF-8" standalone="no"?>
<!-- Created with Inkscape (http://www.inkscape.org/) -->

<svg
   xmlns:dc="http://purl.org/dc/elements/1.1/"
   xmlns:cc="http://creativecommons.org/ns#"
   xmlns:rdf="http://www.w3.org/1999/02/22-rdf-syntax-ns#"
   xmlns:svg="http://www.w3.org/2000/svg"
   xmlns="http://www.w3.org/2000/svg"
   xmlns:sodipodi="http://sodipodi.sourceforge.net/DTD/sodipodi-0.dtd"
   xmlns:inkscape="http://www.inkscape.org/namespaces/inkscape"
   version="1.1"
   id="svg2"
   xml:space="preserve"
   width="2300"
   height="1500"
   viewBox="0 0 2300 1500"
   sodipodi:docname="samrasto_When_Temporal_Data.svg"
   inkscape:version="0.92.0 r15299"><metadata
     id="metadata8"><rdf:RDF><cc:Work
         rdf:about=""><dc:format>image/svg+xml</dc:format><dc:type
           rdf:resource="http://purl.org/dc/dcmitype/StillImage" /><dc:title></dc:title></cc:Work></rdf:RDF></metadata><defs
     id="defs6" /><sodipodi:namedview
     pagecolor="#ffffff"
     bordercolor="#666666"
     borderopacity="1"
     objecttolerance="10"
     gridtolerance="10"
     guidetolerance="10"
     inkscape:pageopacity="0"
     inkscape:pageshadow="2"
     inkscape:window-width="1920"
     inkscape:window-height="1001"
     id="namedview4"
     showgrid="false"
     inkscape:zoom="0.81802549"
     inkscape:cx="606.70903"
     inkscape:cy="522.60159"
     inkscape:window-x="-9"
     inkscape:window-y="-9"
     inkscape:window-maximized="1"
     inkscape:current-layer="g10" /><g
     id="g10"
     inkscape:groupmode="layer"
     inkscape:label="samrasto_When_Temporal_Data"
     transform="matrix(1.3333333,0,0,-1.3333333,0,1500)"><g
       transform="matrix(2.2553146,0,0,1.9285701,-30.484054,-43.825456)"
       id="g14"><text
         id="text18"
         style="font-variant:normal;font-weight:bold;font-size:23.70774651px;font-family:Arial;-inkscape-font-specification:Arial-BoldMT;writing-mode:lr-tb;fill:#000000;fill-opacity:1;fill-rule:nonzero;stroke:none;stroke-width:1.69341052"
         transform="scale(0.69607941,-1.4366177)"
         x="139.57422"
         y="-390.28497"><tspan
           id="tspan16"
           sodipodi:role="line"
           x="139.57422"
           y="-390.28497"
           style="stroke-width:1.69341052">Burst Analysis of Scholarly Publications related to Mesothelioma (1948-2010)</tspan></text>
</g><g
       transform="matrix(2.2553146,0,0,1.9285701,-19.984054,-31.825456)"
       id="g26"><text
         id="text30"
         style="font-style:italic;font-variant:normal;font-size:10px;font-family:Arial;-inkscape-font-specification:Arial-ItalicMT;writing-mode:lr-tb;fill:#999999;fill-opacity:1;fill-rule:nonzero;stroke:none"
         transform="matrix(1,0,0,-1,357.937,28)"><tspan
           id="tspan28"
           sodipodi:role="line"
           y="0"
           x="0 7.2199998 14.44 21.110001 23.889999 27.219999 32.220001 37.779999 42.779999 45.560001 47.779999 53.34 56.119999 61.68 67.239998 72.800003">CNS (cns.iu.edu)</tspan></text>
</g><path
       inkscape:connector-curvature="0"
       id="path32"
       style="fill:none;stroke:#ff626d;stroke-width:1.56416488;stroke-linecap:butt;stroke-linejoin:miter;stroke-miterlimit:10;stroke-dasharray:10.42776618;stroke-dashoffset:0;stroke-opacity:1"
       d="M 223.58992,225.06008 V 992.24527" /><g
       transform="matrix(2.2553146,0,0,1.9285701,-19.984054,-31.825456)"
       id="g34"><text
         id="text38"
         style="font-variant:normal;font-weight:normal;font-size:10px;font-family:Arial;-inkscape-font-specification:ArialMT;writing-mode:lr-tb;fill:#000000;fill-opacity:1;fill-rule:nonzero;stroke:none"
         transform="matrix(1,0,0,-1,96.8805,123.2)"><tspan
           id="tspan36"
           sodipodi:role="line"
           y="0"
           x="0 5.5599999 11.12 16.68">1948</tspan></text>
</g><path
       inkscape:connector-curvature="0"
       id="path40"
       style="fill:none;stroke:#ff626d;stroke-width:1.56416488;stroke-linecap:butt;stroke-linejoin:miter;stroke-miterlimit:10;stroke-dasharray:10.42776618;stroke-dashoffset:0;stroke-opacity:1"
       d="M 323.55674,225.06008 V 992.24527" /><g
       transform="matrix(2.2553146,0,0,1.9285701,-19.984054,-31.825456)"
       id="g42"><text
         id="text46"
         style="font-variant:normal;font-weight:normal;font-size:10px;font-family:Arial;-inkscape-font-specification:ArialMT;writing-mode:lr-tb;fill:#000000;fill-opacity:1;fill-rule:nonzero;stroke:none"
         transform="matrix(1,0,0,-1,141.205,123.2)"><tspan
           id="tspan44"
           sodipodi:role="line"
           y="0"
           x="0 5.5599999 11.12 16.68">1953</tspan></text>
</g><path
       inkscape:connector-curvature="0"
       id="path48"
       style="fill:none;stroke:#ff626d;stroke-width:1.56416488;stroke-linecap:butt;stroke-linejoin:miter;stroke-miterlimit:10;stroke-dasharray:10.42776618;stroke-dashoffset:0;stroke-opacity:1"
       d="M 423.46718,225.06008 V 992.24527" /><g
       transform="matrix(2.2553146,0,0,1.9285701,-19.984054,-31.825456)"
       id="g50"><text
         id="text54"
         style="font-variant:normal;font-weight:normal;font-size:10px;font-family:Arial;-inkscape-font-specification:ArialMT;writing-mode:lr-tb;fill:#000000;fill-opacity:1;fill-rule:nonzero;stroke:none"
         transform="matrix(1,0,0,-1,185.505,123.2)"><tspan
           id="tspan52"
           sodipodi:role="line"
           y="0"
           x="0 5.5599999 11.12 16.68">1958</tspan></text>
</g><path
       inkscape:connector-curvature="0"
       id="path56"
       style="fill:none;stroke:#ff626d;stroke-width:1.56416488;stroke-linecap:butt;stroke-linejoin:miter;stroke-miterlimit:10;stroke-dasharray:10.42776618;stroke-dashoffset:0;stroke-opacity:1"
       d="M 523.37762,225.06008 V 992.24527" /><g
       transform="matrix(2.2553146,0,0,1.9285701,-19.984054,-31.825456)"
       id="g58"><text
         id="text62"
         style="font-variant:normal;font-weight:normal;font-size:10px;font-family:Arial;-inkscape-font-specification:ArialMT;writing-mode:lr-tb;fill:#000000;fill-opacity:1;fill-rule:nonzero;stroke:none"
         transform="matrix(1,0,0,-1,229.805,123.2)"><tspan
           id="tspan60"
           sodipodi:role="line"
           y="0"
           x="0 5.5599999 11.12 16.68">1963</tspan></text>
</g><path
       inkscape:connector-curvature="0"
       id="path64"
       style="fill:none;stroke:#ff626d;stroke-width:1.56416488;stroke-linecap:butt;stroke-linejoin:miter;stroke-miterlimit:10;stroke-dasharray:10.42776618;stroke-dashoffset:0;stroke-opacity:1"
       d="M 623.28805,225.06008 V 992.24527" /><g
       transform="matrix(2.2553146,0,0,1.9285701,-19.984054,-31.825456)"
       id="g66"><text
         id="text70"
         style="font-variant:normal;font-weight:normal;font-size:10px;font-family:Arial;-inkscape-font-specification:ArialMT;writing-mode:lr-tb;fill:#000000;fill-opacity:1;fill-rule:nonzero;stroke:none"
         transform="matrix(1,0,0,-1,274.105,123.2)"><tspan
           id="tspan68"
           sodipodi:role="line"
           y="0"
           x="0 5.5599999 11.12 16.68">1968</tspan></text>
</g><path
       inkscape:connector-curvature="0"
       id="path72"
       style="fill:none;stroke:#ff626d;stroke-width:1.56416488;stroke-linecap:butt;stroke-linejoin:miter;stroke-miterlimit:10;stroke-dasharray:10.42776618;stroke-dashoffset:0;stroke-opacity:1"
       d="M 723.25487,225.06008 V 992.24527" /><g
       transform="matrix(2.2553146,0,0,1.9285701,-19.984054,-31.825456)"
       id="g74"><text
         id="text78"
         style="font-variant:normal;font-weight:normal;font-size:10px;font-family:Arial;-inkscape-font-specification:ArialMT;writing-mode:lr-tb;fill:#000000;fill-opacity:1;fill-rule:nonzero;stroke:none"
         transform="matrix(1,0,0,-1,318.43,123.2)"><tspan
           id="tspan76"
           sodipodi:role="line"
           y="0"
           x="0 5.5599999 11.12 16.68">1973</tspan></text>
</g><path
       inkscape:connector-curvature="0"
       id="path80"
       style="fill:none;stroke:#ff626d;stroke-width:1.56416488;stroke-linecap:butt;stroke-linejoin:miter;stroke-miterlimit:10;stroke-dasharray:10.42776618;stroke-dashoffset:0;stroke-opacity:1"
       d="M 823.16531,225.06008 V 992.24527" /><g
       transform="matrix(2.2553146,0,0,1.9285701,-19.984054,-31.825456)"
       id="g82"><text
         id="text86"
         style="font-variant:normal;font-weight:normal;font-size:10px;font-family:Arial;-inkscape-font-specification:ArialMT;writing-mode:lr-tb;fill:#000000;fill-opacity:1;fill-rule:nonzero;stroke:none"
         transform="matrix(1,0,0,-1,362.73,123.2)"><tspan
           id="tspan84"
           sodipodi:role="line"
           y="0"
           x="0 5.5599999 11.12 16.68">1978</tspan></text>
</g><path
       inkscape:connector-curvature="0"
       id="path88"
       style="fill:none;stroke:#ff626d;stroke-width:1.56416488;stroke-linecap:butt;stroke-linejoin:miter;stroke-miterlimit:10;stroke-dasharray:10.42776618;stroke-dashoffset:0;stroke-opacity:1"
       d="M 923.07575,225.06008 V 992.24527" /><g
       transform="matrix(2.2553146,0,0,1.9285701,-19.984054,-31.825456)"
       id="g90"><text
         id="text94"
         style="font-variant:normal;font-weight:normal;font-size:10px;font-family:Arial;-inkscape-font-specification:ArialMT;writing-mode:lr-tb;fill:#000000;fill-opacity:1;fill-rule:nonzero;stroke:none"
         transform="matrix(1,0,0,-1,407.03,123.2)"><tspan
           id="tspan92"
           sodipodi:role="line"
           y="0"
           x="0 5.5599999 11.12 16.68">1983</tspan></text>
</g><path
       inkscape:connector-curvature="0"
       id="path96"
       style="fill:none;stroke:#ff626d;stroke-width:1.56416488;stroke-linecap:butt;stroke-linejoin:miter;stroke-miterlimit:10;stroke-dasharray:10.42776618;stroke-dashoffset:0;stroke-opacity:1"
       d="M 1022.9862,225.06008 V 992.24527" /><g
       transform="matrix(2.2553146,0,0,1.9285701,-19.984054,-31.825456)"
       id="g98"><text
         id="text102"
         style="font-variant:normal;font-weight:normal;font-size:10px;font-family:Arial;-inkscape-font-specification:ArialMT;writing-mode:lr-tb;fill:#000000;fill-opacity:1;fill-rule:nonzero;stroke:none"
         transform="matrix(1,0,0,-1,451.331,123.2)"><tspan
           id="tspan100"
           sodipodi:role="line"
           y="0"
           x="0 5.5599999 11.12 16.68">1988</tspan></text>
</g><path
       inkscape:connector-curvature="0"
       id="path104"
       style="fill:none;stroke:#ff626d;stroke-width:1.56416488;stroke-linecap:butt;stroke-linejoin:miter;stroke-miterlimit:10;stroke-dasharray:10.42776618;stroke-dashoffset:0;stroke-opacity:1"
       d="M 1122.953,225.06008 V 992.24527" /><g
       transform="matrix(2.2553146,0,0,1.9285701,-19.984054,-31.825456)"
       id="g106"><text
         id="text110"
         style="font-variant:normal;font-weight:normal;font-size:10px;font-family:Arial;-inkscape-font-specification:ArialMT;writing-mode:lr-tb;fill:#000000;fill-opacity:1;fill-rule:nonzero;stroke:none"
         transform="matrix(1,0,0,-1,495.655,123.2)"><tspan
           id="tspan108"
           sodipodi:role="line"
           y="0"
           x="0 5.5599999 11.12 16.68">1993</tspan></text>
</g><path
       inkscape:connector-curvature="0"
       id="path112"
       style="fill:none;stroke:#ff626d;stroke-width:1.56416488;stroke-linecap:butt;stroke-linejoin:miter;stroke-miterlimit:10;stroke-dasharray:10.42776618;stroke-dashoffset:0;stroke-opacity:1"
       d="M 1222.8634,225.06008 V 992.24527" /><g
       transform="matrix(2.2553146,0,0,1.9285701,-19.984054,-31.825456)"
       id="g114"><text
         id="text118"
         style="font-variant:normal;font-weight:normal;font-size:10px;font-family:Arial;-inkscape-font-specification:ArialMT;writing-mode:lr-tb;fill:#000000;fill-opacity:1;fill-rule:nonzero;stroke:none"
         transform="matrix(1,0,0,-1,539.955,123.2)"><tspan
           id="tspan116"
           sodipodi:role="line"
           y="0"
           x="0 5.5599999 11.12 16.68">1998</tspan></text>
</g><path
       inkscape:connector-curvature="0"
       id="path120"
       style="fill:none;stroke:#ff626d;stroke-width:1.56416488;stroke-linecap:butt;stroke-linejoin:miter;stroke-miterlimit:10;stroke-dasharray:10.42776618;stroke-dashoffset:0;stroke-opacity:1"
       d="M 1322.7739,225.06008 V 992.24527" /><g
       transform="matrix(2.2553146,0,0,1.9285701,-19.984054,-31.825456)"
       id="g122"><text
         id="text126"
         style="font-variant:normal;font-weight:normal;font-size:10px;font-family:Arial;-inkscape-font-specification:ArialMT;writing-mode:lr-tb;fill:#000000;fill-opacity:1;fill-rule:nonzero;stroke:none"
         transform="matrix(1,0,0,-1,584.256,123.2)"><tspan
           id="tspan124"
           sodipodi:role="line"
           y="0"
           x="0 5.5599999 11.12 16.68">2003</tspan></text>
</g><path
       inkscape:connector-curvature="0"
       id="path128"
       style="fill:none;stroke:#ff626d;stroke-width:1.56416488;stroke-linecap:butt;stroke-linejoin:miter;stroke-miterlimit:10;stroke-dasharray:10.42776618;stroke-dashoffset:0;stroke-opacity:1"
       d="M 1422.6843,225.06008 V 992.24527" /><g
       transform="matrix(2.2553146,0,0,1.9285701,-19.984054,-31.825456)"
       id="g130"><text
         id="text134"
         style="font-variant:normal;font-weight:normal;font-size:10px;font-family:Arial;-inkscape-font-specification:ArialMT;writing-mode:lr-tb;fill:#000000;fill-opacity:1;fill-rule:nonzero;stroke:none"
         transform="matrix(1,0,0,-1,628.556,123.2)"><tspan
           id="tspan132"
           sodipodi:role="line"
           y="0"
           x="0 5.5599999 11.12 16.68">2008</tspan></text>
</g><path
       inkscape:connector-curvature="0"
       id="path136"
       style="fill:none;stroke:#ff626d;stroke-width:1.56416488;stroke-linecap:butt;stroke-linejoin:miter;stroke-miterlimit:10;stroke-dasharray:10.42776618;stroke-dashoffset:0;stroke-opacity:1"
       d="M 1522.6511,225.06008 V 992.24527" /><g
       transform="matrix(2.2553146,0,0,1.9285701,-19.984054,-31.825456)"
       id="g138"><text
         id="text142"
         style="font-variant:normal;font-weight:normal;font-size:10px;font-family:Arial;-inkscape-font-specification:ArialMT;writing-mode:lr-tb;fill:#000000;fill-opacity:1;fill-rule:nonzero;stroke:none"
         transform="matrix(1,0,0,-1,672.88,123.2)"><tspan
           id="tspan140"
           sodipodi:role="line"
           y="0"
           x="0 5.5599999 11.12 16.68">2013</tspan></text>
<text
         id="text146"
         style="font-variant:normal;font-weight:normal;font-size:6.21562004px;font-family:Arial;-inkscape-font-specification:ArialMT;writing-mode:lr-tb;fill:#000000;fill-opacity:1;fill-rule:nonzero;stroke:none"
         transform="matrix(1,0,0,-1,84.511,146.4)"><tspan
           id="tspan144"
           sodipodi:role="line"
           y="0"
           x="0 3.4558847 4.8357525 8.2916374 11.747521 13.817324">pleura</tspan></text>
</g><path
       inkscape:connector-curvature="0"
       id="path148"
       style="fill:#ffe680;fill-opacity:1;fill-rule:nonzero;stroke:none;stroke-width:0.20855533"
       d="M 223.58992,237.04807 H 783.1673 v 38.29196 H 223.58992 Z" /><g
       transform="matrix(2.2553146,0,0,1.9285701,-19.984054,-31.825456)"
       id="g150"><text
         id="text154"
         style="font-variant:normal;font-weight:normal;font-size:6.21562004px;font-family:Arial;-inkscape-font-specification:ArialMT;writing-mode:lr-tb;fill:#000000;fill-opacity:1;fill-rule:nonzero;stroke:none"
         transform="matrix(1,0,0,-1,87.0566,168.145)"><tspan
           id="tspan152"
           sodipodi:role="line"
           y="0"
           x="0 3.4558847 6.9117694 8.9815712 10.361439 13.469249 16.925133 18.994934 22.450819 23.830687 27.286572">pericardium</tspan></text>
</g><path
       inkscape:connector-curvature="0"
       id="path156"
       style="fill:#ffe680;fill-opacity:1;fill-rule:nonzero;stroke:none;stroke-width:0.20855533"
       d="m 263.58793,287.3259 h 599.519 v 21.60596 h -599.519 z" /><g
       transform="matrix(2.2553146,0,0,1.9285701,-19.984054,-31.825456)"
       id="g158"><text
         id="text162"
         style="font-variant:normal;font-weight:normal;font-size:6.21562004px;font-family:Arial;-inkscape-font-specification:ArialMT;writing-mode:lr-tb;fill:#000000;fill-opacity:1;fill-rule:nonzero;stroke:none"
         transform="matrix(1,0,0,-1,118.242,187.224)"><tspan
           id="tspan160"
           sodipodi:role="line"
           y="0"
           x="0 3.4558847 5.5256863 6.9055538 12.083165 15.53905 17.608852">primari</tspan></text>
</g><path
       inkscape:connector-curvature="0"
       id="path164"
       style="fill:#ffe680;fill-opacity:1;fill-rule:nonzero;stroke:none;stroke-width:0.20855533"
       d="m 303.52955,320.91966 h 279.81688 v 28.01171 H 303.52955 Z" /><g
       transform="matrix(2.2553146,0,0,1.9285701,-19.984054,-31.825456)"
       id="g166"><text
         id="text170"
         style="font-variant:normal;font-weight:normal;font-size:6.21562004px;font-family:Arial;-inkscape-font-specification:ArialMT;writing-mode:lr-tb;fill:#000000;fill-opacity:1;fill-rule:nonzero;stroke:none"
         transform="matrix(1,0,0,-1,157.82,205.098)"><tspan
           id="tspan168"
           sodipodi:role="line"
           y="0"
           x="0 3.4558847 4.8357525 6.563695 8.2916374 11.747521">diffus</tspan></text>
</g><path
       inkscape:connector-curvature="0"
       id="path172"
       style="fill:#ffe680;fill-opacity:1;fill-rule:nonzero;stroke:none;stroke-width:0.20855533"
       d="m 383.46917,360.9182 h 599.57539 v 14.65337 H 383.46917 Z" /><g
       transform="matrix(2.2553146,0,0,1.9285701,-19.984054,-31.825456)"
       id="g174"><text
         id="text178"
         style="font-variant:normal;font-weight:normal;font-size:6.21562004px;font-family:Arial;-inkscape-font-specification:ArialMT;writing-mode:lr-tb;fill:#000000;fill-opacity:1;fill-rule:nonzero;stroke:none"
         transform="matrix(1,0,0,-1,181.866,218.545)"><tspan
           id="tspan176"
           sodipodi:role="line"
           y="0"
           x="0 3.4558847 6.563695 10.01958 13.475464 16.583275 18.311216 21.767101 24.87491">asbestosi</tspan></text>
</g><path
       inkscape:connector-curvature="0"
       id="path180"
       style="fill:#ffe680;fill-opacity:1;fill-rule:nonzero;stroke:none;stroke-width:0.20855533"
       d="m 463.4088,387.55947 h 439.69614 v 13.20392 H 463.4088 Z" /><g
       transform="matrix(2.2553146,0,0,1.9285701,-19.984054,-31.825456)"
       id="g182"><text
         id="text186"
         style="font-variant:normal;font-weight:normal;font-size:6.21562004px;font-family:Arial;-inkscape-font-specification:ArialMT;writing-mode:lr-tb;fill:#000000;fill-opacity:1;fill-rule:nonzero;stroke:none"
         transform="matrix(1,0,0,-1,295.803,232.866)"><tspan
           id="tspan184"
           sodipodi:role="line"
           y="0"
           x="0 1.7279423 3.10781 6.563695 8.6334963 12.089381 15.545265">fibrous</tspan></text>
</g><path
       inkscape:connector-curvature="0"
       id="path188"
       style="fill:#ffe680;fill-opacity:1;fill-rule:nonzero;stroke:none;stroke-width:0.20855533"
       d="m 703.22768,412.75045 h 319.75852 v 18.09616 H 703.22768 Z" /><g
       transform="matrix(2.2553146,0,0,1.9285701,-19.984054,-31.825456)"
       id="g190"><text
         id="text194"
         style="font-variant:normal;font-weight:normal;font-size:6.21562004px;font-family:Arial;-inkscape-font-specification:ArialMT;writing-mode:lr-tb;fill:#000000;fill-opacity:1;fill-rule:nonzero;stroke:none"
         transform="matrix(1,0,0,-1,472.679,253.718)"><tspan
           id="tspan192"
           sodipodi:role="line"
           y="0"
           x="0 3.4558847 6.9117694 12.089381 15.545265">human</tspan></text>
</g><path
       inkscape:connector-curvature="0"
       id="path196"
       style="fill:#ffe680;fill-opacity:1;fill-rule:nonzero;stroke:none;stroke-width:0.20855533"
       d="m 1102.9258,442.83422 h 159.8797 v 38.32126 h -159.8797 z" /><g
       transform="matrix(2.2553146,0,0,1.9285701,-19.984054,-31.825456)"
       id="g198"><text
         id="text202"
         style="font-variant:normal;font-weight:normal;font-size:6.21562004px;font-family:Arial;-inkscape-font-specification:ArialMT;writing-mode:lr-tb;fill:#000000;fill-opacity:1;fill-rule:nonzero;stroke:none"
         transform="matrix(1,0,0,-1,495.591,278.49)"><tspan
           id="tspan200"
           sodipodi:role="line"
           y="0"
           x="0 3.4558847 6.9117694 10.367654">gene</tspan></text>
</g><path
       inkscape:connector-curvature="0"
       id="path204"
       style="fill:#ffe680;fill-opacity:1;fill-rule:nonzero;stroke:none;stroke-width:0.20855533"
       d="m 1142.9238,493.1429 h 199.8218 v 33.31219 h -199.8218 z" /><g
       transform="matrix(2.2553146,0,0,1.9285701,-19.984054,-31.825456)"
       id="g206"><text
         id="text210"
         style="font-variant:normal;font-weight:normal;font-size:6.21562004px;font-family:Arial;-inkscape-font-specification:ArialMT;writing-mode:lr-tb;fill:#000000;fill-opacity:1;fill-rule:nonzero;stroke:none"
         transform="matrix(1,0,0,-1,542.652,302.907)"><tspan
           id="tspan208"
           sodipodi:role="line"
           y="0"
           x="0 3.10781 6.563695 10.01958 15.197191 18.653076 20.381018 23.836903 27.292788 29.362589 32.818474 36.274357">chemotherapi</tspan></text>
</g><path
       inkscape:connector-curvature="0"
       id="path212"
       style="fill:#ffe680;fill-opacity:1;fill-rule:nonzero;stroke:none;stroke-width:0.20855533"
       d="m 1302.8031,538.44308 h 159.8797 v 39.17177 h -159.8797 z" /><g
       transform="matrix(2.2553146,0,0,1.9285701,-19.984054,-31.825456)"
       id="g214"><text
         id="text218"
         style="font-variant:normal;font-weight:normal;font-size:6.21562004px;font-family:Arial;-inkscape-font-specification:ArialMT;writing-mode:lr-tb;fill:#000000;fill-opacity:1;fill-rule:nonzero;stroke:none"
         transform="matrix(1,0,0,-1,554.399,336.684)"><tspan
           id="tspan216"
           sodipodi:role="line"
           y="0"
           x="0 3.4558847 6.9117694 12.089381 15.545265 17.273209 19.34301 22.798895">pemetrex</tspan></text>
</g><path
       inkscape:connector-curvature="0"
       id="path220"
       style="fill:#ffe680;fill-opacity:1;fill-rule:nonzero;stroke:none;stroke-width:0.20855533"
       d="m 1302.8031,589.60226 h 159.8797 v 66.40163 h -159.8797 z" /><g
       transform="matrix(2.2553146,0,0,1.9285701,-19.984054,-31.825456)"
       id="g222"><text
         id="text226"
         style="font-variant:normal;font-weight:normal;font-size:6.21562004px;font-family:Arial;-inkscape-font-specification:ArialMT;writing-mode:lr-tb;fill:#000000;fill-opacity:1;fill-rule:nonzero;stroke:none"
         transform="matrix(1,0,0,-1,561.311,371.869)"><tspan
           id="tspan224"
           sodipodi:role="line"
           y="0"
           x="0 3.10781 6.563695 8.6334963 12.089381 15.545265 17.615067">surgeri</tspan></text>
</g><path
       inkscape:connector-curvature="0"
       id="path228"
       style="fill:#ffe680;fill-opacity:1;fill-rule:nonzero;stroke:none;stroke-width:0.20855533"
       d="m 1302.8031,667.99092 h 159.8797 v 46.0718 h -159.8797 z" /><g
       transform="matrix(2.2553146,0,0,1.9285701,-19.984054,-31.825456)"
       id="g230"><text
         id="text234"
         style="font-variant:normal;font-weight:normal;font-size:6.21562004px;font-family:Arial;-inkscape-font-specification:ArialMT;writing-mode:lr-tb;fill:#000000;fill-opacity:1;fill-rule:nonzero;stroke:none"
         transform="matrix(1,0,0,-1,570.382,406.013)"><tspan
           id="tspan232"
           sodipodi:role="line"
           y="0"
           x="0 3.4558847 6.563695 8.2916374 10.361439 13.817324 17.273209 18.653076 22.108961 25.564844">extrapleur</tspan></text>
</g><path
       inkscape:connector-curvature="0"
       id="path236"
       style="fill:#ffe680;fill-opacity:1;fill-rule:nonzero;stroke:none;stroke-width:0.20855533"
       d="m 1342.7447,726.05052 h 119.9369 v 61.64945 h -119.9369 z" /><g
       transform="matrix(2.2553146,0,0,1.9285701,-19.984054,-31.825456)"
       id="g238"><text
         id="text242"
         style="font-variant:normal;font-weight:normal;font-size:6.21562004px;font-family:Arial;-inkscape-font-specification:ArialMT;writing-mode:lr-tb;fill:#000000;fill-opacity:1;fill-rule:nonzero;stroke:none"
         transform="matrix(1,0,0,-1,553.798,446.298)"><tspan
           id="tspan240"
           sodipodi:role="line"
           y="0"
           x="0 3.4558847 6.9117694 10.367654 13.823539 19.00115 22.457035 25.91292 29.368805 32.476616 34.204556 37.660442 42.838055">pneumonectomi</tspan></text>
</g><path
       inkscape:connector-curvature="0"
       id="path244"
       style="fill:#ffe680;fill-opacity:1;fill-rule:nonzero;stroke:none;stroke-width:0.20855533"
       d="m 1342.7447,799.68719 h 119.9369 V 869.448 h -119.9369 z" /><g
       transform="matrix(2.2553146,0,0,1.9285701,-19.984054,-31.825456)"
       id="g246"><text
         id="text250"
         style="font-variant:normal;font-weight:normal;font-size:6.21562004px;font-family:Arial;-inkscape-font-specification:ArialMT;writing-mode:lr-tb;fill:#000000;fill-opacity:1;fill-rule:nonzero;stroke:none"
         transform="matrix(1,0,0,-1,585.698,493.719)"><tspan
           id="tspan248"
           sodipodi:role="line"
           y="0"
           x="0 5.1776114 8.6334963 11.741306 15.197191 16.925133 20.381018 23.836903 25.21677 26.596638">mesothelin</tspan></text>
</g><path
       inkscape:connector-curvature="0"
       id="path252"
       style="fill:#ffe680;fill-opacity:1;fill-rule:nonzero;stroke:none;stroke-width:0.20855533"
       d="m 1382.7427,881.43541 h 79.9394 v 86.83542 h -79.9394 z" /><g
       transform="matrix(2.2553146,0,0,1.9285701,-19.984054,-31.825456)"
       id="g254"><text
         id="text258"
         style="font-variant:normal;font-weight:bold;font-size:14px;font-family:Arial;-inkscape-font-specification:Arial-BoldMT;writing-mode:lr-tb;fill:#000000;fill-opacity:1;fill-rule:nonzero;stroke:none"
         transform="matrix(1,0,0,-1,18,94)"><tspan
           id="tspan256"
           sodipodi:role="line"
           y="0"
           x="0 8.5539999 16.337999 24.892 32.675999 41.23">Legend</tspan></text>
<text
         id="text268"
         style="font-variant:normal;font-weight:normal;font-size:10px;font-family:Arial;-inkscape-font-specification:ArialMT;writing-mode:lr-tb;fill:#000000;fill-opacity:1;fill-rule:nonzero;stroke:none"
         transform="matrix(1,0,0,-1,18,80)"><tspan
           id="tspan260"
           sodipodi:role="line"
           y="0"
           x="0 6.6700001 10 15.56 21.120001 23.9 28.9 31.120001 36.119999 41.68 44.459999 47.240002 56.68 62.240002 64.459999 70.019997 75.580002">Area size: Weight</tspan><tspan
           id="tspan262"
           sodipodi:role="line"
           y="10"
           x="0 8.3299999 10.55 16.110001 18.33 26.66 32.220001 40.549999 43.330002 49.169998 51.950001 57.509998">Minimum = 12</tspan><tspan
           id="tspan264"
           sodipodi:role="line"
           y="20"
           x="0 8.3299999 13.89 18.889999 21.110001 29.440001 35 43.330002 46.110001 51.950001 54.73 60.290001">Maximum = 44</tspan><tspan
           id="tspan266"
           sodipodi:role="line"
           y="30"
           x="0 6.1100001 11.67 16.67 19.450001 22.23 24.450001 30.01 35.57 41.130001 43.349998 46.130001 48.91 58.349998 63.91 67.239998">Text label: Word</tspan></text>
<text
         id="text272"
         style="font-variant:normal;font-weight:bold;font-size:14px;font-family:Arial;-inkscape-font-specification:Arial-BoldMT;writing-mode:lr-tb;fill:#000000;fill-opacity:1;fill-rule:nonzero;stroke:none"
         transform="matrix(1,0,0,-1,421.2,94)"><tspan
           id="tspan270"
           sodipodi:role="line"
           y="0"
           x="0 10.108 18.662001 29.554001 33.445999 42 50.554001 54.445999 64.554001 72.337997 80.122002 88.676003 92.568001 101.122 109.676 113.568 121.352 125.244 136.90601 144.69">How To Read This Map</tspan></text>
<text
         id="text276"
         style="font-variant:normal;font-weight:normal;font-size:10px;font-family:Arial;-inkscape-font-specification:ArialMT;writing-mode:lr-tb;fill:#000000;fill-opacity:1;fill-rule:nonzero;stroke:none"
         transform="matrix(1,0,0,-1,421.2,79)"><tspan
           id="tspan274"
           sodipodi:role="line"
           y="0"
           x="0 6.1100001 11.67 13.89 18.889999">This </tspan></text>
<text
         id="text280"
         style="font-style:italic;font-variant:normal;font-size:10px;font-family:Arial;-inkscape-font-specification:Arial-ItalicMT;writing-mode:lr-tb;fill:#000000;fill-opacity:1;fill-rule:nonzero;stroke:none"
         transform="matrix(1,0,0,-1,442.8699,79)"><tspan
           id="tspan278"
           sodipodi:role="line"
           y="0"
           x="0 2.78 8.3400002 16.67 22.23 27.790001 31.120001 36.68 38.900002 41.68 47.240002 52.799999 56.130001 58.91 64.470001 67.800003 73.360001 78.919998">temporal bar graph</tspan></text>
<text
         id="text290"
         style="font-variant:normal;font-weight:normal;font-size:10px;font-family:Arial;-inkscape-font-specification:ArialMT;writing-mode:lr-tb;fill:#000000;fill-opacity:1;fill-rule:nonzero;stroke:none"
         transform="matrix(1,0,0,-1,530.13,79)"><tspan
           id="tspan282"
           sodipodi:role="line"
           y="0"
           x="0 5 7.2199998 12.22 17.780001 23.34 25.559999 27.780001 32.779999 38.34 41.119999 43.34 48.900002 54.459999 57.240002 60.57 66.129997 71.690002 75.019997 80.580002 85.580002 91.139999 96.699997 99.480003 104.48 107.26 112.82 118.38 123.38 128.94 131.72 135.05 140.61 145.61 151.17 154.5 160.06 162.84 168.39999 173.39999 176.17999 181.74001 184.52 190.08 195.64 198.97 201.19 206.19 211.75 217.31 220.09 225.64999">visualization represents each record as a horizontal</tspan><tspan
           id="tspan284"
           sodipodi:role="line"
           y="11"
           x="-108.93 -103.37 -97.809998 -94.480003 -91.699997 -84.480003 -82.260002 -79.480003 -73.919998 -71.139999 -65.580002 -62.799999 -57.799999 -52.240002 -46.68 -41.68 -39.459999 -36.68 -34.459999 -29.459999 -26.68 -21.68 -18.9 -13.34 -10.01 -7.23 -4.4499998 1.11 6.6700001 12.23 15.01 20.57 26.129999 31.690001 34.470001 40.029999 45.59 48.369999 53.93 56.709999 62.27 67.830002 73.389999 76.169998 81.730003 84.510002 87.290001 92.849998 97.849998 100.63 103.41 105.63 111.19 116.75 122.31 124.53 127.31 132.87 138.42999 141.21001 143.42999 146.21001 151.21001 153.99001 156.21001 161.77 164.55 167.33 170.11 175.11 177.33 182.89 188.45 191.23 194.00999 200.12 205.67999 211.24001 214.02 219.58 222.91 228.47">bar with a specific start and end date and a text label on its left side. The area</tspan><tspan
           id="tspan286"
           sodipodi:role="line"
           y="22"
           x="-108.93 -103.37 -100.59 -97.809998 -92.25 -86.690002 -81.690002 -76.129997 -73.349998 -67.790001 -62.23 -58.900002 -56.119999 -50.560001 -45 -40 -34.439999 -28.879999 -23.32 -18.32 -15.54 -9.9799995 -7.1999998 -1.64 3.9200001 12.25 17.809999 21.139999 23.360001 28.360001 33.919998 36.139999 38.919998 44.48 47.259998 50.040001 53.369999 55.59 61.150002 66.709999 69.489998 75.050003 77.830002 82.830002 88.389999 90.610001 96.169998 101.73 104.51 107.29 112.85 115.63 121.19 123.97 126.75 129.53 132.31 137.87 140.64999 146.21001 148.42999 151.21001 156.77 165.10001 170.66 176.22 181.78 184.56 187.34 192.89999 195.67999 198.46001 201.24001 206.8 212.36 217.92 220.14 225.7 231.25999">of each bar encodes a numerical attribute value, e.g., total amount of funding.</tspan><tspan
           id="tspan288"
           sodipodi:role="line"
           y="33"
           x="-108.93 -102.26 -96.699997 -93.370003 -88.370003 -85.589996 -77.260002 -71.699997 -66.699997 -63.919998 -58.360001 -52.799999 -50.02 -45.02 -39.459999 -37.240002 -31.68 -28.35 -22.790001 -17.23 -14.45 -11.67 -6.1100001 -3.3299999 2.23 5.5599999 11.12 16.120001 21.68 27.24 30.02 32.799999 37.799999 43.360001 46.139999 51.700001 57.259998 62.82 66.150002 68.370003 73.370003 78.93 81.150002 83.93 89.489998 92.269997 95.050003 98.379997 100.6 106.16 111.72 114.5 120.06 122.84 127.84 133.39999 135.62 141.17999 146.74001 151.74001 154.52 160.08 162.86 165.64 168.97 174.53 179.53 185.09 188.42 193.98 198.98">Bars may be colored to present categorical attribute values of records.</tspan></text>
</g><g
       transform="matrix(2.2553146,0,0,1.9285701,-19.984054,-31.825456)"
       id="g292"><text
         id="text296"
         style="font-variant:normal;font-weight:bold;font-size:14px;font-family:Arial;-inkscape-font-specification:Arial-BoldMT;writing-mode:lr-tb;fill:#000000;fill-opacity:1;fill-rule:nonzero;stroke:none"
         transform="matrix(1,0,0,-1,218.079,97.4723)"><tspan
           id="tspan294"
           sodipodi:role="line"
           y="0"
           x="0 10.108 15.554 23.337999">Area</tspan></text>
</g><path
       inkscape:connector-curvature="0"
       id="path298"
       style="fill:#ffe680;fill-opacity:1;fill-rule:nonzero;stroke:none;stroke-width:0.20855533"
       d="m 564.59349,141.74585 h 112.76573 v 34.71426 H 564.59349 Z" /><g
       transform="matrix(2.2553146,0,0,1.9285701,-19.984054,-31.825456)"
       id="g300"><text
         id="text304"
         style="font-variant:normal;font-weight:normal;font-size:10px;font-family:Arial;-inkscape-font-specification:ArialMT;writing-mode:lr-tb;fill:#000000;fill-opacity:1;fill-rule:nonzero;stroke:none"
         transform="matrix(1,0,0,-1,314.2,96.3398)"><tspan
           id="tspan302"
           y="0"
           x="0">8</tspan></text>
</g><path
       inkscape:connector-curvature="0"
       id="path306"
       style="fill:#ffe680;fill-opacity:1;fill-rule:nonzero;stroke:none;stroke-width:0.20855533"
       d="m 564.59349,118.60301 h 112.76573 v 11.57142 H 564.59349 Z" /><g
       transform="matrix(2.2553146,0,0,1.9285701,-19.984054,-31.825456)"
       id="g308"><text
         id="text312"
         style="font-variant:normal;font-weight:normal;font-size:10px;font-family:Arial;-inkscape-font-specification:ArialMT;writing-mode:lr-tb;fill:#000000;fill-opacity:1;fill-rule:nonzero;stroke:none"
         transform="matrix(1,0,0,-1,314.2,78.3398)"><tspan
           id="tspan310"
           y="0"
           x="0">3</tspan></text>
</g><path
       inkscape:connector-curvature="0"
       id="path314"
       style="fill:#ffe680;fill-opacity:1;fill-rule:nonzero;stroke:none;stroke-width:0.20855533"
       d="m 564.59349,103.17445 h 112.76573 v 3.85714 H 564.59349 Z" /><g
       transform="matrix(2.2553146,0,0,1.9285701,-19.984054,-31.825456)"
       id="g316"><text
         id="text320"
         style="font-variant:normal;font-weight:normal;font-size:10px;font-family:Arial;-inkscape-font-specification:ArialMT;writing-mode:lr-tb;fill:#000000;fill-opacity:1;fill-rule:nonzero;stroke:none"
         transform="matrix(1,0,0,-1,314.2,68.4551)"><tspan
           id="tspan318"
           y="0"
           x="0">1</tspan></text>
</g><path
       inkscape:connector-curvature="0"
       id="path322"
       style="fill:#ffe680;stroke:#ffe680;stroke-width:1.56416488;stroke-linecap:butt;stroke-linejoin:miter;stroke-miterlimit:10;stroke-dasharray:4.17110647;stroke-dashoffset:0;stroke-opacity:1;fill-opacity:1"
       d="M 564.59349,83.88875 H 677.35922" /><g
       transform="matrix(2.2553146,0,0,1.9285701,-19.984054,-31.825456)"
       id="g324"><text
         id="text328"
         style="font-variant:normal;font-weight:normal;font-size:10px;font-family:Arial;-inkscape-font-specification:ArialMT;writing-mode:lr-tb;fill:#000000;fill-opacity:1;fill-rule:nonzero;stroke:none"
         transform="matrix(1,0,0,-1,314.2,56.3398)"><tspan
           id="tspan326"
           y="0"
           x="0">0</tspan></text>
</g><path
       inkscape:connector-curvature="0"
       id="path330"
       style="fill:none;stroke:#000000;stroke-width:2.08555317;stroke-linecap:butt;stroke-linejoin:miter;stroke-miterlimit:10;stroke-dasharray:none;stroke-opacity:1"
       d="m 564.59349,72.317329 v -9.64285" /><path
       inkscape:connector-curvature="0"
       id="path332"
       style="fill:none;stroke:#000000;stroke-width:2.08555317;stroke-linecap:butt;stroke-linejoin:miter;stroke-miterlimit:10;stroke-dasharray:none;stroke-opacity:1"
       d="M 564.59349,72.317329 H 677.35922" /><path
       inkscape:connector-curvature="0"
       id="path334"
       style="fill:none;stroke:#000000;stroke-width:2.08555317;stroke-linecap:butt;stroke-linejoin:miter;stroke-miterlimit:10;stroke-dasharray:none;stroke-opacity:1"
       d="m 677.35922,72.317329 v -9.64285" /><g
       transform="matrix(2.2553146,0,0,1.9285701,-19.984054,-31.825456)"
       id="g336"><text
         id="text340"
         style="font-variant:normal;font-weight:normal;font-size:10px;font-family:Arial;-inkscape-font-specification:ArialMT;writing-mode:lr-tb;fill:#000000;fill-opacity:1;fill-rule:nonzero;stroke:none"
         transform="matrix(1,0,0,-1,259.2,39)"><tspan
           id="tspan338"
           sodipodi:role="line"
           y="0"
           x="0 5.5599999 8.3400002 13.9 19.459999 22.24 28.91 34.470001 40.029999 43.360001 46.689999 51.689999">5.65 Year(s)</tspan></text>
</g><rect
       style="fill:#9368ff;fill-opacity:0.05098039;stroke:#ffe680;stroke-width:0.75;stroke-opacity:0.1442786"
       id="rect4982"
       width="1562.2986"
       height="817.82294"
       x="84.349449"
       y="-1008.526"
       transform="scale(1,-1)" /></g></svg>